<?xml version="1.0" encoding="iso-8859-1"?>
<!-- Generator: Adobe Illustrator 19.0.0, SVG Export Plug-In . SVG Version: 6.00 Build 0)  -->
<svg version="1.1" id="Capa_1" xmlns="http://www.w3.org/2000/svg" xmlns:xlink="http://www.w3.org/1999/xlink" x="0px" y="0px"
	 viewBox="0 0 512 512" style="enable-background:new 0 0 512 512;" xml:space="preserve">
<path style="fill:#7BCEFC;" d="M152.065,65.556c-7.521,0-14.849-2.591-20.779-7.469c-7.596-6.249-11.952-15.473-11.952-25.31
	s4.357-19.06,11.952-25.309c7.596-6.249,17.486-8.743,27.139-6.848h-0.001l50.892,9.999v44.316l-50.891,10
	C156.308,65.351,154.178,65.555,152.065,65.556z"/>
<path style="fill:#009DFF;" d="M296.779,64.935l-50.891-10V10.619L296.78,0.62h-0.001c9.653-1.895,19.543,0.599,27.139,6.848
	s11.952,15.473,11.952,25.309s-4.357,19.061-11.952,25.31c-5.93,4.878-13.258,7.469-20.779,7.469
	C301.026,65.555,298.897,65.351,296.779,64.935z"/>
<rect x="212.599" y="54.53" style="fill:#CACACD;" width="30" height="53.14"/>
<rect x="227.599" y="54.53" style="fill:#A9A8AE;" width="15" height="53.14"/>
<path style="fill:#009DFF;" d="M287.2,167.369H168.005V92.674h119.194L287.2,167.369L287.2,167.369z"/>
<path style="fill:#0064E0;" d="M287.2,167.369h-59.598V92.674H287.2V167.369z"/>
<path style="fill:#EBEBEC;" d="M433.716,381.146H321.474v-54.361h-25.458c-17.073,19.781-42.103,31.383-68.413,31.383
	s-51.34-11.602-68.414-31.383H56.901V202.387h94.26v-65.018h152.884v65.086h129.672v178.691H433.716z"/>
<path style="fill:#CACACD;" d="M433.716,381.146H321.474v-54.361h-25.458c-17.073,19.781-42.103,31.383-68.413,31.383
	c0-49.669,0-220.799,0-220.799h76.442v65.086h129.672v178.691H433.716z"/>
<path style="fill:#A9A8AE;" d="M227.602,65.556c-16.943,0-30.727-13.784-30.727-30.727s13.784-30.727,30.727-30.727
	s30.727,13.784,30.727,30.727C258.33,51.772,244.545,65.556,227.602,65.556z"/>
<path style="fill:#808081;" d="M227.602,65.556c0-26.986,0-45.625,0-61.454c16.943,0,30.727,13.784,30.727,30.727
	C258.33,51.772,244.545,65.556,227.602,65.556z"/>
<path style="fill:#7BCEFC;" d="M377.595,406.816l31.53,37.634c13.689,16.339,12.629,40.43-2.444,55.502l0,0
	C398.649,507.984,388.122,512,377.595,512s-21.054-4.016-29.086-12.048l0,0c-15.073-15.073-16.134-39.163-2.444-55.502
	L377.595,406.816z"/>
<path style="fill:#009DFF;" d="M377.595,406.816l31.53,37.634c13.689,16.339,12.629,40.43-2.444,55.502l0,0
	C398.649,507.984,388.122,512,377.595,512C377.595,480.204,377.595,406.816,377.595,406.816z"/>
<g>
	<rect x="56.901" y="181.59" style="fill:#666666;" width="30" height="166"/>
	<rect x="300.099" y="351.15" style="fill:#666666;" width="155" height="30"/>
</g>
<g>
</g>
<g>
</g>
<g>
</g>
<g>
</g>
<g>
</g>
<g>
</g>
<g>
</g>
<g>
</g>
<g>
</g>
<g>
</g>
<g>
</g>
<g>
</g>
<g>
</g>
<g>
</g>
<g>
</g>
</svg>
